<?xml version="1.0" encoding="utf-8"?>
<!-- Generator: Adobe Illustrator 24.1.2, SVG Export Plug-In . SVG Version: 6.00 Build 0)  -->
<svg version="1.1" id="图层_1" xmlns="http://www.w3.org/2000/svg" xmlns:xlink="http://www.w3.org/1999/xlink" x="0px" y="0px"
	 viewBox="0 0 904.6 904.6" style="enable-background:new 0 0 904.6 904.6;" xml:space="preserve">
<style type="text/css">
	.st0{fill:url(#SVGID_1_);}
	.st1{fill:#FFFFFF;}
	.st2{fill:url(#SVGID_2_);}
</style>
<linearGradient id="SVGID_1_" gradientUnits="userSpaceOnUse" x1="0" y1="452.288" x2="904.576" y2="452.288">
	<stop  offset="0" style="stop-color:#A5B4FC"/>
	<stop  offset="1" style="stop-color:#C084FC"/>
</linearGradient>
<rect class="st0" width="904.6" height="904.6"/>
<path class="st1" d="M639.7,689.3c-1.7-10.6-3.8-21-6.3-31c-1.2-4.7-2.7-9.2-4.1-13.8c-1.8-6-3.5-12-5.6-17.8
	c-1.9-5.2-4-10.1-6.1-15.2c-2-4.7-4-9.6-6.1-14.2c-2.4-5.1-5.1-10.1-7.8-15c-2.2-4-4.5-7.9-6.8-11.8c-2.9-4.9-6.1-9.5-9.3-14.1
	c-2.4-3.5-4.9-6.7-7.4-9.9c-3.5-4.4-7-8.7-10.8-12.8c-2.7-2.8-5.4-5.5-8.1-8.2c-3.8-3.8-7.8-7.6-11.9-11c-2.9-2.4-6-4.5-9-6.7
	c-4.2-3.1-8.3-6.3-12.7-8.8c-0.3-0.1-0.5-0.4-0.8-0.5c-13.3-7.9-21.4-22-21.4-37.5v-17.5c0-15.5,8.2-29.6,21.4-37.5
	c0.3-0.1,0.5-0.4,0.8-0.5c4.4-2.7,8.4-5.8,12.7-8.8c3.1-2.2,6-4.2,9-6.7c4.1-3.5,7.9-7.2,11.9-11c2.7-2.7,5.5-5.4,8.2-8.2
	c3.7-4.1,7.3-8.3,10.8-12.7c2.6-3.2,5-6.5,7.4-9.9c3.2-4.5,6.4-9.2,9.3-14.1c2.4-3.8,4.6-7.8,6.8-11.8c2.7-4.9,5.4-9.9,7.8-15
	c2.2-4.6,4.2-9.3,6.1-14.2c2-5,4.2-10,6.1-15.2c2-5.8,3.8-11.8,5.6-17.8c1.4-4.6,2.9-9.1,4.1-13.8c2.6-10.1,4.6-20.5,6.3-31
	c0.1-0.9,0.4-1.7,0.5-2.6c4.1-26.8-16.4-51.1-43.5-51.1H307.7c-27.1,0-47.6,24.3-43.5,51.1c0.1,0.9,0.4,1.7,0.5,2.6
	c1.7,10.6,3.8,21,6.3,31.1c1.2,4.7,2.7,9.2,4.1,13.8c1.8,6,3.5,12,5.6,17.8c1.9,5.2,4,10.1,6.1,15.2c2,4.7,4,9.6,6.1,14.2
	c2.4,5.1,5.1,10.1,7.8,15c2.2,4,4.5,7.9,6.8,11.8c2.9,4.9,6.1,9.5,9.3,14.1c2.4,3.5,4.9,6.7,7.4,9.9c3.5,4.4,7,8.7,10.8,12.7
	c2.7,2.8,5.4,5.5,8.2,8.2c3.8,3.8,7.8,7.6,11.9,11c2.9,2.4,6,4.5,9,6.7c4.2,3.1,8.3,6.3,12.7,8.8c0.3,0.1,0.5,0.4,0.8,0.5
	c13.3,7.9,21.4,22,21.4,37.5v17.5c0,15.5-8.2,29.6-21.4,37.5c-0.3,0.1-0.5,0.4-0.8,0.5c-4.4,2.7-8.4,5.8-12.7,8.8
	c-2.9,2.2-6,4.2-9,6.7c-4.1,3.5-7.9,7.2-11.9,11c-2.7,2.7-5.5,5.2-8.1,8.2c-3.7,4.1-7.3,8.3-10.8,12.8c-2.6,3.2-5,6.5-7.4,9.9
	c-3.2,4.6-6.4,9.2-9.3,14.1c-2.3,3.8-4.6,7.8-6.8,11.8c-2.7,4.9-5.4,9.9-7.8,15c-2.2,4.6-4.2,9.3-6.1,14.2c-2,5-4.2,10-6.1,15.2
	c-2,5.8-3.8,11.8-5.6,17.8c-1.4,4.6-2.9,9.1-4.1,13.8c-2.6,10.1-4.6,20.5-6.3,31.1c-0.1,0.9-0.4,1.7-0.5,2.6
	c-4.1,26.8,16.4,51.1,43.5,51.1h289c27.1,0,47.6-24.3,43.5-51.1C640.1,691.1,639.9,690.2,639.7,689.3L639.7,689.3z"/>
<linearGradient id="SVGID_2_" gradientUnits="userSpaceOnUse" x1="147.3667" y1="877.8569" x2="148.3667" y2="877.8569" gradientTransform="matrix(220.7715 0 0 -396.16 -32192.4902 348275.6563)">
	<stop  offset="0" style="stop-color:#A5B4FC"/>
	<stop  offset="1" style="stop-color:#C084FC"/>
</linearGradient>
<path class="st2" d="M350.2,702h204.2c7.7,0,11.3-9.7,5.2-14.6l-94-73.2c-1.9-1.5-2.9-3.8-2.9-6.4V372.1c0-2.3,1-4.5,2.7-6l55.9-46
	c5.5-5.1,1.9-14.3-5.6-14.3h-127c-7.6,0-11.1,9.2-5.6,14.3l55.3,45.7c1.7,1.5,2.7,3.7,2.7,6v235.6c0,2.4-1.2,4.7-2.9,6.4l-93.3,73.5
	C338.9,692.4,342.4,702,350.2,702z"/>
</svg>
